HIERARCHY
ROOT Hips
{
	OFFSET -0.001795 -0.223333 0.028219
	CHANNELS 6 Xposition Yposition Zposition Zrotation Yrotation Xrotation 
	JOINT LeftUpLeg
	{
		OFFSET 0.069520 -0.091406 -0.006815
		CHANNELS 3 Zrotation Yrotation Xrotation
		JOINT LeftLeg
		{
			OFFSET 0.034277 -0.375199 -0.004496
			CHANNELS 3 Zrotation Yrotation Xrotation
			JOINT LeftFoot
			{
				OFFSET -0.013596 -0.397961 -0.043693
				CHANNELS 3 Zrotation Yrotation Xrotation
				JOINT LeftToe
				{
					OFFSET 0.026358 -0.055791 0.119288
					CHANNELS 3 Zrotation Yrotation Xrotation
					End Site
					{
						OFFSET 0.000000 0.000000 0.000000
					}
				}
			}
		}
	}
	JOINT RightUpLeg
	{
		OFFSET -0.067670 -0.090522 -0.004320
		CHANNELS 3 Zrotation Yrotation Xrotation
		JOINT RightLeg
		{
			OFFSET -0.038290 -0.382569 -0.008850
			CHANNELS 3 Zrotation Yrotation Xrotation
			JOINT RightFoot
			{
				OFFSET 0.015774 -0.398415 -0.042312
				CHANNELS 3 Zrotation Yrotation Xrotation
				JOINT RightToe
				{
					OFFSET -0.025372 -0.048144 0.123348
					CHANNELS 3 Zrotation Yrotation Xrotation
					End Site
					{
						OFFSET 0.000000 0.000000 0.000000
					}
				}
			}
		}
	}
	JOINT Spine
	{
		OFFSET -0.002533 0.108963 -0.026696
		CHANNELS 3 Zrotation Yrotation Xrotation
		JOINT Spine1
		{
			OFFSET 0.005487 0.135180 0.001092
			CHANNELS 3 Zrotation Yrotation Xrotation
			JOINT Spine2
			{
				OFFSET 0.001457 0.052922 0.025425
				CHANNELS 3 Zrotation Yrotation Xrotation
				JOINT Neck
				{
					OFFSET -0.002778 0.213870 -0.042857
					CHANNELS 3 Zrotation Yrotation Xrotation
					JOINT Head
					{
						OFFSET 0.005152 0.064970 0.051349
						CHANNELS 3 Zrotation Yrotation Xrotation
						End Site
						{
							OFFSET 0.000000 0.000000 0.000000
						}
					}
				}
				JOINT LeftShoulder
				{
					OFFSET 0.078845 0.121749 -0.034090
					CHANNELS 3 Zrotation Yrotation Xrotation
					JOINT LeftArm
					{
						OFFSET 0.090977 0.030469 -0.008868
						CHANNELS 3 Zrotation Yrotation Xrotation
						JOINT LeftForeArm
						{
							OFFSET 0.259612 -0.012772 -0.027456
							CHANNELS 3 Zrotation Yrotation Xrotation
							JOINT LeftHand
							{
								OFFSET 0.249234 0.008986 -0.001171
								CHANNELS 3 Zrotation Yrotation Xrotation
								End Site
								{
									OFFSET 0.000000 0.000000 0.000000
								}
							}
						}
					}
				}
				JOINT RightShoulder
				{
					OFFSET -0.081759 0.118833 -0.038615
					CHANNELS 3 Zrotation Yrotation Xrotation
					JOINT RightArm
					{
						OFFSET -0.096012 0.032551 -0.009143
						CHANNELS 3 Zrotation Yrotation Xrotation
						JOINT RightForeArm
						{
							OFFSET -0.253742 -0.013329 -0.021401
							CHANNELS 3 Zrotation Yrotation Xrotation
							JOINT RightHand
							{
								OFFSET -0.255298 0.007772 -0.005559
								CHANNELS 3 Zrotation Yrotation Xrotation
								End Site
								{
									OFFSET 0.000000 0.000000 0.000000
								}
							}
						}
					}
				}
			}
		}
	}
}
MOTION
Frames: 9
Frame Time: 0.050000
0.004580 0.963335 -0.035802 -2.802963 -12.608008 1.744124 2.226337 0.732332 7.938660 -0.082403 0.355556 -8.878680 4.585747 11.309658 17.122594 0.000000 0.000000 0.000000 0.702743 -0.182659 1.562293 0.532714 -0.212083 -5.856690 3.839175 -1.952700 16.600299 0.000000 0.000000 0.000000 7.152310 -0.412875 3.516025 -6.309047 1.914587 -25.398237 -2.634214 5.808087 28.898018 16.417429 -7.475388 -30.096175 0.000000 0.000000 0.000000 -7.696644 -7.487505 3.197952 -47.022136 2.881123 -8.831896 -35.446602 -50.618227 20.941347 0.000000 0.000000 0.000000 5.542614 -1.780039 -1.108058 11.573849 46.437173 -0.554413 -79.779730 58.770746 -47.382050 0.000000 0.000000 0.000000 
0.004524 0.963730 -0.038248 -2.604697 -10.956764 1.675143 2.513030 0.650235 7.526282 -0.440079 0.365432 -8.810624 3.919992 10.509318 17.146569 0.000000 0.000000 0.000000 0.571602 -0.193261 1.747480 0.503508 -0.225149 -6.106039 3.029338 -3.123290 16.749002 0.000000 0.000000 0.000000 7.726674 -0.433773 3.501052 -7.269620 2.171110 -25.302532 -2.405751 6.177121 28.947471 16.874375 -7.326417 -30.963606 0.000000 0.000000 0.000000 -7.519311 -8.292867 3.367381 -46.438611 2.955737 -8.778819 -35.173145 -51.223139 20.728666 0.000000 0.000000 0.000000 3.958392 -1.340551 -0.718869 10.613857 48.501514 -0.704515 -72.890616 55.649507 -39.194520 0.000000 0.000000 0.000000 
0.004132 0.963904 -0.040490 -2.176230 -9.572539 1.398521 2.654359 0.591154 7.174376 -1.084604 0.375448 -8.357199 3.444424 9.914331 16.694463 0.000000 0.000000 0.000000 0.398460 -0.201456 1.938604 0.521042 -0.231746 -6.087662 2.259599 -4.183446 16.716387 0.000000 0.000000 0.000000 7.715611 -0.424337 3.413419 -8.092089 2.415124 -24.578283 -2.194122 6.602847 28.572132 16.541582 -7.052300 -30.401090 0.000000 0.000000 0.000000 -7.314042 -8.060088 3.099577 -45.631049 2.371997 -8.400921 -36.605669 -54.026374 22.506636 0.000000 0.000000 0.000000 2.240803 0.314536 0.039374 9.705594 49.148273 -0.798068 -64.393082 52.329291 -30.924687 0.000000 0.000000 0.000000 
0.003401 0.964415 -0.042468 -1.809408 -8.274959 1.005496 3.027320 0.562109 7.283939 -1.699337 0.408237 -8.569548 2.845287 9.213249 16.893309 0.000000 0.000000 0.000000 0.158851 -0.234741 2.442273 0.532462 -0.248302 -6.500111 1.780977 -4.997943 17.293336 0.000000 0.000000 0.000000 7.595284 -0.403256 3.280328 -8.863262 2.642084 -24.244738 -1.528838 7.496144 28.906366 17.117013 -7.106436 -30.618058 0.000000 0.000000 0.000000 -6.600199 -8.340878 3.018143 -45.228208 1.246237 -7.984162 -40.260328 -57.706932 26.099284 0.000000 0.000000 0.000000 1.614664 1.034155 0.352220 9.696939 49.286609 -0.581353 -53.827765 52.275607 -24.415091 0.000000 0.000000 0.000000 
0.002515 0.964339 -0.044335 -1.713976 -7.300699 0.985326 3.230587 0.497516 6.821115 -1.954696 0.406990 -8.275143 2.730392 9.182193 16.969761 0.000000 0.000000 0.000000 0.300405 -0.264183 2.640944 0.581799 -0.259058 -6.671129 1.264803 -5.653024 17.177884 0.000000 0.000000 0.000000 7.589350 -0.379976 3.018334 -9.718148 2.911074 -23.457048 -0.988963 7.977961 28.507761 17.149671 -6.946377 -30.544754 0.000000 0.000000 0.000000 -6.296855 -6.842115 2.286735 -43.819988 0.499672 -7.453290 -49.423666 -64.605475 35.841239 0.000000 0.000000 0.000000 1.188208 2.929252 1.052075 10.371916 47.773342 -0.208735 -43.635842 54.013193 -19.565144 0.000000 0.000000 0.000000 
0.001666 0.964342 -0.046172 -1.760287 -6.088582 0.780287 3.905756 0.430487 6.688237 -2.660935 0.432382 -8.180692 2.255805 8.599462 16.743141 0.000000 0.000000 0.000000 0.448929 -0.310302 2.999822 0.622143 -0.267953 -6.714088 0.864005 -6.269093 17.623342 0.000000 0.000000 0.000000 7.270752 -0.379946 3.104169 -10.203330 3.071209 -23.152774 -0.103601 8.587768 28.189932 18.022055 -7.225507 -30.598378 0.000000 0.000000 0.000000 -5.595345 -6.184654 1.905579 -42.843006 -1.258260 -6.697625 -62.967620 -70.451465 50.022368 0.000000 0.000000 0.000000 1.682311 3.566674 1.331435 11.424722 45.735269 0.182295 -32.597804 58.270530 -14.856211 0.000000 0.000000 0.000000 
0.001191 0.963783 -0.047481 -1.962684 -5.134317 0.766569 4.287080 0.366240 6.310239 -2.755036 0.423395 -7.885828 1.958005 8.222232 16.450882 0.000000 0.000000 0.000000 0.671235 -0.333582 3.071337 0.585379 -0.267600 -6.582742 0.743478 -6.267026 17.514245 0.000000 0.000000 0.000000 7.136378 -0.403844 3.338294 -10.334067 3.145038 -22.683435 0.512084 9.160579 27.777484 18.760985 -7.307068 -31.122595 0.000000 0.000000 0.000000 -5.135518 -5.187104 1.426319 -42.203816 -2.738404 -6.080062 -82.805986 -74.956079 71.135085 0.000000 0.000000 0.000000 1.902190 4.100969 1.570358 12.890273 43.411657 0.589697 -22.974269 62.961710 -10.188760 0.000000 0.000000 0.000000 
0.001249 0.963190 -0.048164 -2.178833 -4.898426 0.757589 4.574833 0.349434 6.379002 -2.665398 0.415824 -7.848363 2.098390 8.335969 15.781923 0.000000 0.000000 0.000000 0.862784 -0.361236 3.222413 0.821352 -0.276260 -6.523073 0.481237 -6.643963 17.453938 0.000000 0.000000 0.000000 6.937155 -0.434310 3.698936 -10.601809 3.188521 -23.111095 1.576840 9.330179 27.963362 19.208863 -7.409748 -31.587537 0.000000 0.000000 0.000000 -4.784083 -4.568266 1.187371 -42.409112 -3.548525 -5.877977 -102.733609 -77.452237 93.392584 0.000000 0.000000 0.000000 2.272440 4.214323 1.648001 14.566984 40.982911 0.838511 -16.974447 68.404807 -7.152613 0.000000 0.000000 0.000000 
0.001875 0.962528 -0.048226 -2.240728 -5.316052 0.843457 4.420870 0.371388 6.485133 -2.394799 0.409865 -8.100607 1.994937 8.085171 15.586662 0.000000 0.000000 0.000000 0.649893 -0.320598 2.952232 0.701680 -0.269188 -6.503266 0.658285 -6.408272 17.425627 0.000000 0.000000 0.000000 6.862064 -0.483273 4.219831 -10.375645 3.113276 -23.315085 1.895234 9.636073 28.053170 19.729299 -7.712813 -31.509707 0.000000 0.000000 0.000000 -4.974663 -3.716014 0.837209 -42.323935 -4.257804 -5.633128 -110.872360 -77.699042 102.208263 0.000000 0.000000 0.000000 2.503720 3.459140 1.379308 16.541283 38.972636 1.109334 -18.935616 75.908860 -9.518204 0.000000 0.000000 0.000000 
